<?xml version="1.0" standalone="no"?>
<!DOCTYPE svg PUBLIC "-//W3C//DTD SVG 20010904//EN"
 "http://www.w3.org/TR/2001/REC-SVG-20010904/DTD/svg10.dtd">
<svg version="1.0" xmlns="http://www.w3.org/2000/svg"
 width="1024.000000pt" height="1024.000000pt" viewBox="0 0 1024.000000 1024.000000"
 preserveAspectRatio="xMidYMid meet">

<g transform="translate(0.000000,1024.000000) scale(0.100000,-0.100000)"
fill="#000000" stroke="none">
<path d="M0 5120 l0 -5120 5120 0 5120 0 0 5120 0 5120 -5120 0 -5120 0 0
-5120z m6573 3714 c57 -19 131 -83 159 -137 23 -45 30 -149 12 -180 -8 -14
-10 -6 -6 37 2 31 -1 77 -8 101 -14 49 -85 139 -102 129 -6 -4 -5 -10 3 -15 8
-5 10 -9 6 -9 -5 0 1 -15 12 -34 32 -51 25 -65 -9 -18 -38 53 -69 73 -122 78
-24 2 -34 1 -24 -2 15 -5 16 -8 5 -15 -10 -6 -8 -9 9 -9 23 0 23 -2 16 -56 -6
-51 -5 -56 15 -61 15 -4 21 -13 21 -33 0 -49 12 -90 26 -90 8 0 14 -6 14 -12
0 -9 3 -9 9 1 8 12 13 11 31 -10 l21 -24 -12 25 c-11 23 -11 24 4 12 14 -12
17 -10 23 12 3 14 4 50 2 80 -1 31 1 51 6 46 4 -4 7 -39 4 -77 -4 -77 -13 -95
-220 -425 -54 -87 -98 -162 -98 -166 0 -5 -33 -59 -74 -120 l-74 -112 137 2
136 2 -118 3 c-94 3 -118 6 -114 17 9 22 256 389 284 421 l26 30 -18 -30 c-11
-16 -46 -73 -79 -125 -33 -52 -79 -130 -102 -172 l-42 -78 68 0 c37 0 91 -5
120 -10 54 -10 147 -57 136 -68 -4 -3 -12 0 -18 6 -29 29 -25 7 10 -55 60
-110 50 -174 -55 -348 l-24 -40 36 40 c19 22 52 74 73 115 43 86 49 160 18
219 -10 18 -13 30 -7 26 24 -14 42 -69 42 -125 1 -69 -29 -144 -89 -225 -21
-27 -89 -131 -152 -230 -121 -190 -166 -247 -211 -271 -37 -19 -42 -18 -29 6
10 18 9 19 -27 4 -25 -11 -58 -15 -99 -12 -54 3 -72 10 -150 60 -189 119 -293
165 -474 210 -226 55 -641 20 -706 -59 -29 -36 -30 -46 -1 -39 20 6 20 5 2 -3
-11 -6 -53 -24 -94 -40 l-74 -30 40 33 c21 19 52 54 68 78 17 23 36 47 42 51
7 4 13 12 13 17 0 13 317 407 336 418 21 12 272 326 358 447 19 28 52 77 73
110 21 33 65 98 98 145 65 91 118 170 210 315 78 122 116 167 180 211 92 63
138 73 321 74 120 0 172 -4 207 -16z m148 -367 c-10 -9 -11 -8 -5 6 3 10 9 15
12 12 3 -3 0 -11 -7 -18z m-1331 -413 c0 -3 -44 -63 -97 -132 -54 -70 -157
-206 -230 -302 -250 -330 -433 -565 -443 -568 -6 -2 -8 -8 -5 -12 3 -5 0 -12
-6 -16 -8 -4 -9 -3 -5 4 4 7 5 12 2 12 -11 0 -170 -136 -254 -217 -47 -45 -90
-80 -94 -77 -12 8 -101 -83 -94 -94 3 -5 -7 -20 -22 -33 l-27 -24 25 30 c13
17 -1 5 -33 -25 -60 -57 -81 -95 -24 -44 l32 29 -29 -32 c-16 -18 -32 -31 -35
-28 -6 7 -51 -36 -51 -48 0 -5 8 -3 17 4 12 10 11 5 -4 -17 -12 -17 -30 -37
-40 -45 -11 -8 -9 -3 5 12 12 14 22 29 22 34 0 18 -46 -36 -146 -170 -111
-149 -101 -142 -176 -136 -10 0 -18 7 -18 14 0 12 -64 37 -96 37 -9 0 -24 8
-33 18 -25 29 -126 81 -185 96 -29 8 -76 26 -104 40 -61 31 -170 37 -196 11
-9 -9 -34 -15 -66 -15 -56 0 -55 -2 -36 55 4 11 -2 4 -12 -15 -58 -105 -145
-392 -183 -607 -30 -169 -37 -544 -15 -778 21 -213 27 -233 51 -186 10 20 161
222 239 321 24 30 75 100 113 155 38 55 103 145 144 201 40 56 112 155 159
220 47 65 122 170 168 232 45 62 79 118 76 124 -4 6 -2 8 3 5 6 -4 16 0 23 8
11 13 10 14 -4 9 -9 -4 -16 -1 -16 6 0 7 8 10 19 7 15 -4 29 8 58 47 121 160
177 231 187 235 6 2 4 -5 -4 -16 -110 -149 -146 -197 -206 -274 -39 -49 -98
-127 -130 -172 -32 -45 -88 -120 -124 -167 -36 -47 -97 -130 -136 -185 -90
-127 -208 -290 -349 -480 -234 -315 -302 -415 -290 -427 3 -3 -2 -5 -10 -5
-10 0 -12 4 -5 12 5 6 8 22 5 36 -2 13 -11 67 -20 119 -9 52 -21 124 -27 160
-12 81 -26 530 -15 523 4 -2 7 17 7 44 0 71 27 255 57 393 9 41 17 87 17 102
1 14 3 24 5 22 3 -2 21 49 42 113 20 65 44 136 53 157 9 22 14 46 11 53 -2 8
-1 12 4 8 5 -3 17 16 27 42 10 27 24 57 31 68 16 24 17 49 1 39 -7 -4 -8 -3
-4 5 4 6 12 8 18 5 8 -5 9 -1 5 10 -4 9 -3 15 2 12 12 -8 23 22 14 37 -3 7 -2
9 2 4 11 -9 96 124 90 140 -2 7 0 12 4 10 10 -2 114 152 114 170 0 7 5 9 10 6
6 -4 8 0 4 10 -3 9 -2 19 3 22 5 3 7 14 5 24 -4 19 17 23 32 6 4 -4 2 -5 -6 0
-10 6 -12 4 -6 -5 6 -9 4 -11 -6 -5 -8 5 -11 5 -7 0 4 -4 2 -15 -4 -24 -7 -9
0 -5 15 9 15 13 25 30 22 38 -2 7 -1 11 4 7 5 -3 20 9 32 27 13 18 27 36 32
39 10 7 9 20 -4 35 -5 7 -3 11 6 11 8 0 12 -4 9 -8 -2 -4 0 -11 6 -14 6 -4 10
-3 9 2 -4 21 2 34 13 27 6 -4 8 -3 5 3 -4 6 -17 9 -30 8 -18 -2 -23 2 -23 21
0 13 2 21 6 18 3 -3 5 -11 5 -17 0 -17 54 -16 68 2 8 10 8 13 1 8 -7 -4 -17 0
-23 7 -9 10 -9 16 -1 21 8 5 8 10 0 20 -8 9 -8 15 0 20 6 3 7 11 4 17 -4 6 -2
8 4 4 6 -3 14 -1 18 5 4 8 3 9 -4 5 -7 -4 -12 -2 -12 5 0 8 -5 7 -17 -2 -16
-12 -17 -12 -6 2 7 9 10 18 7 21 -3 3 0 9 7 14 7 4 10 3 5 -4 -3 -6 -2 -13 3
-17 16 -9 32 30 19 43 -16 16 -19 42 -5 39 6 -1 12 4 13 11 1 6 3 14 4 17 1 3
3 10 4 17 0 7 12 15 26 19 14 4 21 7 16 8 -5 1 -3 7 3 14 6 8 9 16 6 19 -3 3
1 11 10 18 8 7 15 18 15 24 0 6 -5 4 -10 -4 -7 -12 -9 -10 -7 7 0 12 4 20 8
18 3 -3 17 7 30 21 30 32 74 56 85 46 5 -4 6 -3 2 2 -11 14 30 66 47 59 9 -3
21 0 29 6 20 17 58 23 49 8 -4 -7 4 -5 17 4 17 11 32 14 47 8 14 -5 25 -4 29
3 5 7 2 8 -6 3 -9 -5 -11 -4 -6 4 4 6 11 9 16 6 4 -2 19 5 34 16 14 11 26 18
26 15 0 -16 -3 -21 -12 -18 -5 1 -6 -3 -2 -9 4 -7 3 -9 -4 -5 -6 3 -13 2 -16
-3 -7 -11 13 -9 31 2 7 4 30 7 51 6 21 -2 44 1 52 6 8 5 11 4 6 -3 -3 -6 -2
-14 4 -17 6 -4 9 -1 8 6 -2 8 8 14 27 14 37 2 57 -4 49 -16 -3 -5 8 -1 25 8
16 10 27 22 24 27 -3 5 -1 6 5 2 7 -4 47 8 89 28 322 144 626 221 961 245 139
10 262 13 262 5z m-1991 -561 c-6 -7 -15 -10 -20 -7 -13 8 -3 21 15 21 12 0
13 -4 5 -14z m-69 -299 c0 -2 -9 0 -20 6 -11 6 -20 13 -20 16 0 2 9 0 20 -6
11 -6 20 -13 20 -16z m-95 -76 c0 -18 -5 -34 -10 -35 -11 -3 -14 16 -6 32 3 6
6 13 7 18 6 29 10 21 9 -15z m2090 -27 c38 -4 -2 -6 -110 -6 -93 0 -147 3
-120 6 68 8 158 8 230 0z m-297 -18 c-10 -2 -26 -2 -35 0 -10 3 -2 5 17 5 19
0 27 -2 18 -5z m405 0 c-7 -2 -19 -2 -25 0 -7 3 -2 5 12 5 14 0 19 -2 13 -5z
m-528 -24 c-38 -10 -74 -17 -80 -15 -12 3 103 34 130 34 11 0 -11 -8 -50 -19z
m630 6 c53 -17 34 -18 -35 0 -30 7 -44 13 -30 13 14 0 43 -5 65 -13z m109 -31
c26 -9 45 -18 43 -20 -2 -2 -28 5 -58 15 -30 11 -49 20 -43 20 6 1 32 -6 58
-15z m129 -55 c34 -18 103 -58 153 -90 110 -69 200 -103 258 -95 37 5 38 5 11
-4 -61 -21 -145 6 -267 86 -40 26 -109 67 -153 90 -93 50 -94 59 -2 13z m762
-958 c285 -1 519 -7 545 -12 114 -25 200 -126 200 -234 0 -52 -22 -101 -85
-190 -23 -33 -86 -125 -140 -205 -109 -164 -175 -244 -214 -264 -37 -20 -121
-34 -151 -25 -24 7 -23 7 6 8 44 1 93 20 132 48 38 29 150 171 234 298 33 50
75 109 94 132 50 61 87 141 92 198 3 41 -2 60 -25 104 -29 55 -62 86 -70 65
-3 -8 -16 -7 -46 5 -37 14 -118 16 -697 17 l-655 0 555 -6 c403 -4 563 -9 583
-18 34 -15 40 -15 32 -2 -4 6 20 10 64 10 39 0 71 -4 71 -10 0 -5 6 -7 14 -4
8 3 29 -3 48 -12 18 -10 37 -18 41 -19 22 -1 57 -82 57 -130 -1 -68 -20 -107
-151 -296 -137 -200 -189 -269 -229 -303 -32 -27 -115 -56 -160 -56 -26 0 -27
-3 -54 -127 -118 -544 -208 -945 -255 -1130 l-18 -73 286 1 c256 2 274 3 166
11 -66 5 -189 7 -273 6 -149 -3 -153 -2 -148 17 3 11 37 164 76 340 79 356
160 722 186 833 9 39 20 72 25 72 5 0 9 -7 9 -15 0 -20 -76 -390 -95 -464 -8
-31 -25 -108 -39 -171 -14 -63 -48 -216 -75 -339 -28 -124 -51 -225 -51 -226
0 -1 111 -1 248 -1 l247 1 54 -30 c94 -52 127 -130 96 -225 -21 -63 -295 -476
-357 -538 -98 -99 -102 -67 -4 39 62 67 103 125 249 353 26 41 59 105 73 142
23 61 24 72 14 116 -7 27 -21 58 -31 71 l-19 22 4 -25 c3 -14 5 -25 7 -25 1 0
3 -9 5 -20 2 -11 7 -35 10 -52 11 -58 -5 -98 -95 -239 -198 -308 -277 -405
-368 -447 -43 -19 -66 -22 -213 -24 -91 0 -150 2 -131 5 l34 7 3 66 c3 55 0
69 -16 84 -10 9 -16 23 -13 31 5 15 -25 155 -36 164 -11 8 -32 101 -26 111 4
5 2 9 -3 9 -5 0 -12 30 -16 68 -10 104 -17 132 -32 132 -8 0 -14 8 -15 18 -1
34 -7 58 -22 100 -9 23 -17 46 -17 50 0 4 -19 45 -42 92 -23 47 -45 101 -49
120 -8 38 -46 155 -59 180 -4 9 -11 30 -15 48 -3 18 -11 32 -16 32 -5 0 -9 11
-9 25 0 14 -11 47 -24 73 -13 26 -26 64 -30 85 -4 20 -12 37 -19 38 -9 0 -9 2
1 6 6 2 12 16 12 30 0 18 -4 24 -15 20 -23 -9 -24 3 -10 83 27 150 12 110 -31
-85 -87 -388 -163 -710 -176 -750 l-13 -40 -110 -24 c-93 -20 -140 -24 -300
-25 -269 -2 -394 27 -640 144 -225 108 -422 282 -570 505 -124 187 -236 464
-271 672 -33 192 -22 505 26 718 5 22 7 41 5 43 -2 2 -19 -17 -37 -44 -85
-123 -313 -440 -384 -534 -79 -105 -195 -266 -358 -495 -74 -104 -85 -124 -80
-150 15 -72 96 -299 142 -398 28 -59 48 -106 44 -103 -4 2 -25 40 -46 85 -22
44 -43 78 -48 75 -5 -3 -15 0 -23 6 -8 7 -15 9 -15 6 0 -14 64 -162 98 -226
18 -36 26 -56 17 -45 -35 41 -145 285 -191 422 -27 80 -52 139 -58 136 -5 -4
-7 1 -3 10 4 10 2 16 -6 14 -7 -1 -11 3 -10 10 2 7 -3 10 -11 7 -8 -3 -17 -1
-21 5 -4 7 0 8 10 5 11 -5 18 0 22 15 3 11 9 18 14 15 5 -3 7 -10 4 -15 -4 -5
-2 -9 2 -9 5 0 44 48 88 106 43 58 84 112 92 119 7 8 13 16 13 20 0 7 216 302
307 420 30 39 86 117 125 175 40 58 113 161 163 230 50 69 113 154 138 190 68
93 117 153 117 143 0 -5 -13 -45 -29 -89 -148 -405 -124 -905 63 -1299 186
-393 442 -633 821 -770 53 -19 109 -37 126 -40 16 -3 58 -12 92 -20 68 -17
315 -32 342 -21 12 4 14 10 7 19 -5 6 -8 19 -7 27 2 12 -6 16 -30 16 -19 0
-33 -5 -32 -11 1 -5 -3 -9 -9 -8 -6 1 -11 -5 -11 -13 0 -11 4 -11 19 3 16 14
22 12 19 -9 0 -4 8 -5 19 -3 11 2 22 0 25 -6 4 -5 -37 -9 -101 -9 -77 0 -105
3 -97 11 8 8 4 18 -12 35 -27 29 -38 31 -41 9 -2 -11 3 -15 11 -11 8 3 17 0
21 -6 4 -6 3 -8 -3 -5 -6 4 -16 0 -23 -8 -6 -7 -18 -12 -26 -9 -8 2 -21 6 -30
9 -8 3 -12 9 -9 15 4 6 12 7 18 3 25 -15 35 -11 31 13 -3 16 1 27 12 31 15 6
15 7 0 15 -9 5 -14 13 -12 17 3 4 -1 8 -9 8 -8 0 -16 -6 -19 -14 -3 -7 -2 -13
2 -13 4 0 8 -13 8 -30 1 -26 0 -27 -13 -14 -14 13 -18 13 -40 -1 -14 -9 -27
-14 -31 -11 -3 3 0 6 6 6 7 0 11 5 10 12 -2 7 4 13 12 14 30 2 32 4 20 19 -15
18 -34 20 -24 3 4 -7 -2 -5 -14 6 -12 10 -19 23 -16 27 3 5 1 9 -5 9 -5 0 -13
-5 -16 -10 -4 -6 -11 -8 -16 -4 -6 4 -6 11 2 20 6 8 8 14 4 14 -4 0 -2 7 5 15
7 8 8 15 2 15 -10 0 -39 -30 -34 -37 1 -1 -1 -3 -5 -3 -4 0 -8 6 -9 15 -1 8 1
13 6 10 12 -7 28 18 24 40 -1 10 3 26 9 34 8 10 8 13 1 8 -7 -4 -15 0 -18 9
-3 8 -11 12 -17 8 -9 -5 -7 -11 5 -20 26 -18 4 -26 -42 -15 -2 1 6 15 18 32
12 16 19 33 16 36 -3 4 -6 2 -6 -4 0 -6 -9 -10 -20 -9 -11 0 -20 5 -19 9 0 5
-7 14 -17 21 -13 10 -14 15 -4 21 9 5 11 4 6 -3 -4 -7 -2 -12 3 -12 6 0 12 5
12 10 1 6 2 14 3 19 0 5 4 12 8 16 3 4 5 -1 4 -12 -2 -10 2 -24 8 -32 9 -12 8
-14 -5 -9 -9 4 -16 1 -16 -8 0 -9 5 -10 16 -4 9 5 16 23 16 43 1 32 -1 35 -23
31 l-24 -5 20 26 c12 15 18 33 15 42 -4 10 -2 14 4 10 5 -3 10 0 10 8 0 12 -4
12 -19 -2 -12 -11 -15 -19 -7 -23 6 -4 1 -10 -13 -14 -17 -4 -20 -8 -9 -15 9
-6 10 -11 2 -15 -6 -4 -11 -2 -11 3 0 6 -5 11 -12 11 -6 0 -4 -7 5 -18 23 -25
21 -29 -9 -29 -17 0 -22 2 -13 8 7 4 18 5 24 3 5 -3 1 2 -10 11 -20 16 -20 16
-1 31 12 8 15 14 7 14 -7 0 -3 9 10 21 24 20 24 20 1 9 -12 -6 -27 -8 -32 -5
-5 3 -11 1 -15 -5 -3 -5 0 -10 7 -10 9 0 10 -3 2 -8 -6 -4 -10 -14 -9 -23 2
-10 -3 -16 -11 -15 -8 1 -15 6 -15 12 0 5 -5 15 -11 22 -9 10 -5 17 6 10 2 -2
13 5 25 16 22 20 19 41 -5 32 -22 -8 -17 2 7 15 17 9 20 8 14 -2 -5 -7 -4 -10
3 -5 7 4 10 -1 7 -14 -3 -18 -1 -19 18 -9 31 16 36 23 12 15 -17 -5 -21 -2
-21 19 0 29 3 30 36 9 l25 -16 -22 20 c-21 19 -21 20 -4 36 12 11 21 13 29 6
9 -7 9 -7 2 2 -6 8 -5 17 3 27 10 14 10 14 -5 3 -11 -9 -18 -10 -23 -2 -3 6
-11 7 -17 4 -6 -4 -6 -10 1 -17 7 -7 7 -14 0 -24 -18 -21 -27 -15 -24 17 2 19
-1 27 -8 23 -6 -4 -8 0 -4 10 9 23 -8 30 -24 11 -17 -21 -21 -46 -6 -41 7 3
11 10 9 16 -1 7 1 10 6 7 11 -7 9 -46 -2 -65 -7 -10 -5 -12 5 -6 12 7 12 5 1
-6 -11 -12 -14 -12 -22 1 -5 9 -5 19 2 27 10 12 1 18 -24 14 -8 -1 -4 26 5 35
8 9 -1 24 -14 24 -6 0 -7 -5 -3 -12 5 -7 3 -8 -5 -3 -9 5 -10 10 -2 18 7 7 14
7 24 -1 8 -7 16 -9 20 -6 8 8 -3 35 -13 29 -4 -3 -11 2 -14 11 -6 15 -8 15
-24 1 -17 -15 -18 -15 -18 8 0 17 3 21 12 14 8 -6 16 -4 25 8 12 14 12 16 -2
11 -12 -5 -15 1 -13 31 3 55 4 57 13 43 6 -10 10 -10 21 3 16 19 -3 46 -28 38
-13 -4 -14 -3 -4 5 11 7 11 12 -1 24 -13 13 -12 17 14 32 16 9 29 21 29 27 0
13 -13 11 -30 -3 -12 -11 -12 -10 0 5 12 16 12 18 -1 15 -8 -1 -16 2 -17 7 -3
13 21 14 30 0 5 -6 8 -6 8 3 0 6 5 12 11 12 5 0 7 -5 4 -10 -3 -6 1 -13 10
-16 14 -6 14 -8 -2 -20 -17 -13 -17 -14 1 -7 14 4 17 3 12 -6 -5 -7 -15 -10
-23 -7 -8 4 -11 1 -8 -5 4 -6 13 -8 20 -5 8 3 16 2 18 -2 2 -4 2 -1 0 7 -2 9
3 11 14 7 16 -5 16 -5 2 6 -9 7 -15 21 -13 30 1 10 -3 15 -10 12 -7 -3 -13 2
-13 10 0 8 3 13 7 11 3 -2 12 1 20 6 11 8 6 9 -17 6 -18 -2 -31 -1 -28 1 3 3
-1 12 -8 21 -11 14 -10 15 7 1 18 -14 18 -13 12 8 -7 21 -6 22 13 10 14 -9 17
-14 8 -20 -8 -5 -8 -8 -1 -8 6 0 17 7 24 16 8 8 9 14 4 13 -29 -5 -38 8 -23
36 13 24 3 40 -24 39 -20 -1 -25 2 -17 11 5 6 6 16 2 21 -4 4 0 3 9 -4 12 -9
24 -10 43 -2 30 11 35 21 7 13 -14 -4 -18 0 -17 19 1 21 21 47 38 48 3 0 5 -8
3 -17 -1 -10 -9 -16 -16 -15 -8 2 -10 0 -6 -4 4 -4 15 -9 23 -10 9 -1 13 0 10
3 -3 4 -1 12 5 19 7 9 5 16 -8 26 -10 7 -18 20 -18 28 1 8 -3 21 -8 28 -9 11
2 17 26 13 5 -1 6 3 3 8 -9 15 14 25 27 12 6 -6 16 -11 22 -11 5 0 2 5 -8 11
-9 6 -15 13 -13 17 3 4 -4 8 -14 8 -10 0 -16 -5 -12 -11 3 -5 -1 -4 -10 2 -8
7 -19 9 -24 5 -5 -4 -1 2 9 14 9 11 14 25 10 29 -5 5 0 3 10 -4 9 -7 17 -10
17 -6 0 5 10 0 22 -11 19 -15 20 -16 9 -1 -18 23 -6 22 30 -4 16 -11 26 -25
23 -31 -5 -7 -2 -8 6 -3 10 6 7 14 -13 31 -14 12 -23 25 -19 30 4 4 1 4 -5 0
-7 -4 -13 -3 -13 2 0 27 44 17 45 -10 0 -3 4 -10 9 -15 5 -4 6 -3 2 4 -3 6 -1
15 4 18 8 5 6 13 -6 26 -9 10 -14 19 -10 19 4 0 4 6 -1 13 -4 6 -9 23 -10 37
-2 14 13 -13 32 -60 19 -47 45 -105 57 -130 12 -25 21 -48 20 -52 -1 -5 3 -8
8 -8 6 0 10 -7 10 -16 0 -18 30 -75 45 -86 6 -4 6 -8 1 -8 -5 0 -3 -7 4 -15 7
-8 9 -15 6 -15 -4 0 0 -7 9 -16 9 -9 14 -23 11 -31 -4 -9 -2 -11 6 -7 8 5 9 1
4 -12 -4 -10 -4 -16 -1 -12 8 7 46 -29 49 -46 1 -6 5 -17 9 -23 5 -7 6 -17 3
-22 -4 -5 12 -24 34 -41 22 -17 38 -35 36 -39 -7 -10 40 -66 55 -66 6 0 13 -8
15 -18 1 -9 -2 -15 -6 -12 -5 3 -12 1 -15 -5 -4 -6 -3 -10 2 -9 20 3 46 -2 39
-8 -3 -4 4 -13 16 -21 19 -11 20 -12 3 -8 -19 6 -19 5 -3 -7 10 -8 14 -18 10
-23 -4 -4 0 -3 10 4 12 10 18 10 24 1 4 -8 3 -9 -4 -5 -20 12 -13 -5 11 -26
12 -11 16 -16 8 -12 -9 5 -12 3 -7 -4 4 -7 14 -12 23 -12 11 0 14 -6 10 -21
-4 -15 1 -23 19 -31 20 -9 22 -14 11 -26 -9 -13 -9 -14 1 -8 7 4 12 2 12 -4 0
-6 5 -8 10 -5 6 4 8 11 5 16 -10 15 2 10 16 -8 10 -11 10 -14 2 -9 -7 4 -13 2
-13 -3 0 -6 5 -11 11 -11 6 0 9 -7 6 -15 -4 -8 -2 -17 4 -21 6 -3 8 -12 5 -19
-7 -19 4 -26 25 -14 12 6 19 6 19 0 0 -5 9 -8 21 -6 17 4 19 2 9 -10 -7 -8 -9
-15 -4 -15 5 0 2 -5 -6 -11 -12 -9 -10 -10 8 -6 18 4 21 3 12 -8 -8 -9 -6 -14
5 -19 9 -3 13 -2 10 3 -3 5 -2 12 3 15 4 2 9 -12 10 -32 2 -29 0 -34 -9 -22
-9 12 -10 12 -5 -4 4 -11 1 -45 -5 -75 -7 -31 -12 -59 -11 -63 1 -5 -2 -8 -7
-8 -4 0 -8 -8 -8 -17 0 -34 -3 -43 -14 -43 -5 0 -7 5 -3 12 4 7 3 8 -5 4 -6
-4 -9 -11 -6 -16 3 -4 -7 -13 -22 -19 -27 -10 -26 -10 7 -5 19 4 38 8 42 10 4
3 20 64 37 137 17 72 47 202 66 287 20 85 56 247 80 360 88 407 101 460 126
487 l24 25 -415 -3 c-463 -4 -446 -6 -509 66 -25 28 -33 33 -37 20 -15 -38
104 -133 171 -136 11 0 14 -3 8 -6 -7 -2 -35 3 -62 12 -128 42 -202 182 -171
325 6 30 12 65 13 77 1 11 5 19 9 17 4 -2 9 5 13 16 7 23 138 246 187 318 17
26 45 62 62 80 40 43 138 97 201 111 28 5 194 13 369 15 175 3 321 8 324 11 3
3 10 1 16 -4 6 -4 236 -9 511 -10z m-2928 -533 c-2 -13 -4 -5 -4 17 -1 22 1
32 4 23 2 -10 2 -28 0 -40z m1 -108 c3 -61 -10 -80 -14 -22 -1 15 -4 42 -7 60
-4 22 -2 32 6 29 7 -2 13 -31 15 -67z m-978 25 c0 -2 -6 -8 -13 -14 -10 -8
-14 -7 -14 2 0 8 6 14 14 14 7 0 13 -1 13 -2z m1001 -329 c6 -43 19 -112 30
-154 10 -41 17 -77 15 -79 -2 -2 -14 30 -27 71 -13 41 -26 73 -29 71 -3 -2
-14 27 -24 65 -16 62 -16 79 -4 167 l13 98 7 -80 c4 -44 13 -115 19 -159z
m1186 172 c-3 -8 -6 -5 -6 6 -1 11 2 17 5 13 3 -3 4 -12 1 -19z m-25 -60 c-12
-12 -35 -1 -27 12 3 5 13 6 21 3 10 -4 12 -9 6 -15z m28 -23 c7 -8 9 -15 5
-15 -5 0 0 -10 11 -22 19 -23 19 -23 -2 -6 -18 15 -23 16 -40 4 -13 -10 -25
-11 -35 -5 -10 6 -10 9 -1 9 6 0 11 3 11 8 -5 27 2 35 15 16 12 -16 17 -17 28
-6 11 11 11 13 -1 10 -7 -2 -16 3 -18 10 -6 17 12 15 27 -3z m-139 -119 c-8
-10 -9 -16 -1 -21 6 -3 8 -11 5 -16 -4 -5 2 -9 12 -9 15 0 16 -2 3 -10 -10 -6
-16 -6 -18 0 -2 6 -8 8 -12 5 -5 -3 -12 0 -16 6 -4 7 -3 9 4 5 6 -3 13 -2 16
3 4 5 2 13 -4 16 -10 6 4 35 17 35 3 0 0 -6 -6 -14z m43 -8 c-3 -4 -9 -8 -15
-8 -5 0 -9 4 -9 8 0 5 7 9 15 9 8 0 12 -4 9 -9z m383 6 c-3 -3 -12 -4 -19 -1
-8 3 -5 6 6 6 11 1 17 -2 13 -5z m-401 -80 c-3 -21 -63 -48 -63 -28 0 7 4 11
8 8 5 -3 17 4 29 16 24 24 29 25 26 4z m-30 -69 c0 -14 -1 -25 -1 -25 -1 0
-10 10 -21 22 -10 12 -14 18 -7 15 6 -4 14 -3 18 3 9 15 11 13 11 -15z m0 -72
c-4 -26 -34 -41 -46 -23 -9 15 7 33 22 24 4 -3 8 0 8 5 0 6 4 11 9 11 5 0 8
-8 7 -17z m-1999 -28 c0 -8 -4 -12 -9 -9 -5 3 -6 10 -3 15 9 13 12 11 12 -6z
m1917 -27 c-5 -8 -1 -9 12 -5 19 7 19 7 0 -8 -23 -17 -42 -9 -25 11 14 17 23
19 13 2z m-2083 -21 c-6 -8 -8 -16 -5 -19 3 -3 1 -9 -4 -12 -6 -3 -9 0 -8 6 2
16 15 38 23 38 3 0 0 -6 -6 -13z m115 -12 c-1 -13 -4 -27 -7 -30 -5 -4 -4 41
0 53 4 10 8 -2 7 -23z m58 17 c3 -5 -1 -9 -9 -9 -8 0 -12 4 -9 9 3 4 7 8 9 8
2 0 6 -4 9 -8z m1946 -18 c0 -8 -19 -13 -24 -6 -3 5 1 9 9 9 8 0 15 -2 15 -3z
m-1940 -20 c0 -8 -19 -13 -24 -6 -3 5 1 9 9 9 8 0 15 -2 15 -3z m-134 -33
c-18 -20 -52 -25 -36 -6 5 7 6 16 2 20 -4 5 -2 5 5 1 6 -3 14 -2 18 4 4 6 11
8 16 4 6 -4 4 -13 -5 -23z m122 -13 c-2 -7 4 -11 12 -10 8 2 11 0 7 -4 -4 -5
-19 -9 -33 -10 -23 -1 -23 0 -8 18 20 21 25 23 22 6z m2452 -52 c0 -5 -7 -3
-15 4 -8 7 -12 17 -9 22 7 10 24 -9 24 -26z m-2400 19 c0 -2 -6 -8 -13 -14
-10 -8 -14 -7 -14 2 0 8 6 14 14 14 7 0 13 -1 13 -2z m-17 -71 c4 -1 12 -2 19
-3 27 -3 -6 -15 -45 -16 -23 -1 -42 -6 -42 -12 0 -16 -12 -26 -19 -15 -3 5 6
20 21 33 14 13 23 18 18 10 -5 -9 -3 -12 6 -9 8 3 13 11 11 17 -1 8 2 9 10 4
7 -4 16 -8 21 -9z m53 -56 c-1 -7 -6 -19 -10 -27 -7 -11 -5 -13 10 -7 10 4 15
4 11 0 -4 -4 -2 -13 4 -21 6 -7 8 -13 5 -13 -4 0 -2 -8 3 -19 8 -14 6 -23 -9
-36 -11 -10 -16 -23 -12 -29 3 -6 7 -20 7 -31 1 -11 7 -19 14 -17 7 1 10 -2 7
-7 -5 -8 -27 -8 -46 -1 -3 1 -9 2 -14 1 -5 -1 -3 6 5 15 8 9 14 36 14 58 1 27
5 40 13 39 13 -3 16 9 5 20 -3 4 -18 -3 -31 -15 -14 -13 -22 -17 -18 -10 8 14
5 15 -18 6 -9 -3 -13 -11 -9 -18 4 -6 -1 -5 -10 3 -16 13 -22 8 -17 -14 1 -5
-1 -7 -5 -3 -4 3 -7 10 -7 15 0 4 -5 15 -11 23 -10 13 -10 13 6 1 16 -13 22
-8 17 14 -1 6 4 4 11 -2 18 -18 29 -16 30 5 0 10 3 12 6 4 2 -6 9 -9 15 -6 5
4 0 16 -13 30 -17 18 -25 21 -36 13 -7 -6 -10 -16 -6 -22 4 -6 1 -7 -6 -3 -9
6 -9 12 3 25 9 10 14 21 11 24 -3 4 -2 5 2 2 3 -3 13 1 21 8 13 10 14 9 8 -2
-6 -9 -5 -12 5 -9 8 3 13 12 13 21 -1 13 2 14 16 7 10 -5 17 -15 16 -22z
m-249 7 c0 -8 -4 -12 -9 -9 -5 3 -6 10 -3 15 9 13 12 11 12 -6z m2070 -30 c0
-8 -4 -12 -9 -9 -5 3 -6 10 -3 15 9 13 12 11 12 -6z m-1776 -122 c12 -16 12
-17 -2 -6 -9 7 -20 9 -24 5 -5 -4 -5 -1 -1 6 9 16 11 15 27 -5z m-88 -29 c-2
-5 -7 -10 -13 -10 -5 -1 -13 -2 -17 -3 -3 0 2 -10 11 -20 18 -20 5 -24 -22 -7
-11 6 -10 11 2 25 9 10 13 20 10 24 -3 3 2 4 13 3 10 -2 17 -7 16 -12z m1853
-15 c1 -5 2 -10 4 -11 1 -2 3 -11 5 -22 3 -14 1 -16 -8 -7 -6 6 -12 23 -13 36
-1 23 9 26 12 4z m54 -15 c0 -8 -19 -13 -24 -6 -3 5 1 9 9 9 8 0 15 -2 15 -3z
m755 -14 c3 -6 -1 -7 -9 -4 -18 7 -21 14 -7 14 6 0 13 -4 16 -10z m-2664 -53
c-6 -8 -9 -16 -6 -19 3 -3 -3 -11 -12 -19 -10 -7 -15 -9 -11 -5 4 5 2 16 -5
24 -7 10 -8 13 -1 9 7 -4 17 0 24 8 7 8 15 15 17 15 3 0 0 -6 -6 -13z m65 -33
c1 -9 -1 -13 -4 -9 -4 4 -7 10 -7 13 0 4 -4 14 -9 22 -7 12 -6 13 4 3 8 -7 15
-20 16 -29z m-29 -9 c0 -6 -6 -12 -12 -12 -6 0 -12 6 -12 12 0 6 6 12 12 12 6
0 12 -6 12 -12z m98 6 c3 -5 2 -12 -3 -15 -5 -3 -9 1 -9 9 0 17 3 19 12 6z
m2600 -1 c-3 -5 -1 -10 6 -10 7 0 10 -3 6 -6 -9 -9 -28 6 -22 17 4 5 8 9 11 9
3 0 2 -4 -1 -10z m-2589 -46 c-1 -8 -5 -17 -9 -20 -4 -4 1 -17 10 -28 17 -20
17 -20 1 -7 -19 14 -20 13 -22 -18 0 -11 -5 -23 -10 -28 -5 -5 -6 -3 -2 5 4 7
2 12 -6 12 -11 0 -11 2 0 9 18 11 -5 30 -31 25 -11 -1 -16 0 -13 4 3 3 -3 15
-14 27 -16 17 -17 22 -5 22 8 0 13 -3 10 -5 -3 -3 0 -11 6 -19 9 -10 15 -11
26 -1 9 7 13 7 11 1 -2 -6 2 -11 7 -11 6 0 9 4 8 9 -2 5 0 8 5 7 4 -2 7 2 7 7
0 6 -4 9 -8 7 -5 -1 -6 1 -3 6 8 14 34 10 32 -4z m45 -58 c-5 -6 -7 -21 -5
-33 2 -12 -3 -23 -12 -27 -8 -3 -13 -10 -10 -15 3 -5 -2 -15 -12 -22 -9 -7
-14 -9 -10 -5 4 5 2 16 -4 25 -7 9 -9 13 -4 9 10 -9 47 23 39 35 -3 5 -9 3
-14 -4 -5 -8 -9 -9 -9 -3 0 6 7 17 15 24 8 7 13 16 10 19 -2 4 2 8 10 8 9 0
11 -4 6 -11z m1814 -64 c-2 -9 -4 -19 -5 -22 -1 -3 -2 -9 -1 -13 1 -5 -3 -6
-9 -2 -7 4 -8 11 -2 18 5 7 8 20 7 30 -2 9 0 15 5 12 5 -3 7 -13 5 -23z
m-1899 -58 c1 -9 0 -13 -4 -10 -3 4 -7 14 -8 22 -1 9 0 13 4 10 3 -4 7 -14 8
-22z m88 0 c-17 -14 -17 -15 -1 -10 10 3 15 2 12 -4 -6 -10 29 -33 38 -24 3 3
4 -7 2 -22 -2 -26 -2 -27 11 -10 7 11 11 23 7 29 -3 6 -1 7 5 3 9 -5 9 -13 2
-27 -6 -10 -8 -19 -4 -19 3 0 1 -6 -5 -14 -8 -10 -8 -16 2 -25 8 -6 16 -8 19
-5 3 3 5 -3 5 -13 -1 -11 4 -17 13 -15 11 3 10 -2 -4 -17 -17 -19 -17 -21 -3
-21 10 0 20 0 25 0 4 0 7 4 7 9 0 5 3 12 8 15 4 3 5 3 2 -1 -3 -3 5 -17 17
-30 24 -25 31 -50 18 -58 -5 -3 -7 5 -5 17 4 22 4 22 -10 4 -11 -14 -12 -23
-4 -33 6 -7 15 -11 19 -8 5 3 11 2 14 -3 3 -5 -3 -9 -12 -9 -18 0 -43 27 -36
38 9 15 -26 16 -38 2 -11 -15 -11 -16 7 -9 11 4 16 4 12 0 -4 -4 1 -12 10 -19
13 -9 13 -14 3 -20 -9 -6 -11 -4 -5 4 5 9 0 12 -15 9 -16 -2 -24 3 -26 15 -3
19 23 50 36 42 4 -3 13 1 19 8 8 10 7 14 -4 14 -8 0 -11 -5 -8 -11 4 -6 -1 -5
-10 3 -9 7 -17 10 -17 6 0 -4 -7 -2 -15 5 -11 9 -12 16 -5 26 8 9 7 15 -5 22
-9 5 -16 13 -16 18 1 5 -7 9 -16 9 -10 -1 -17 -6 -16 -12 1 -6 -5 -10 -14 -9
-18 3 -27 33 -12 42 5 3 7 10 3 15 -3 5 -11 6 -17 2 -7 -4 -19 -8 -27 -8 -8 0
-20 -4 -27 -8 -7 -4 -10 -1 -8 10 1 10 -2 24 -7 30 -7 9 -6 15 5 19 9 3 14 14
12 25 -2 11 0 17 5 14 12 -7 6 -35 -9 -45 -7 -4 -9 -9 -5 -12 14 -7 54 -4 54
5 0 4 0 12 0 18 0 5 -4 8 -9 5 -5 -4 -8 2 -7 11 2 10 -2 22 -8 26 -7 6 -4 7 6
3 10 -3 20 -1 23 4 4 6 11 10 18 10 6 0 2 -7 -9 -16z m1869 1 c-3 -9 -8 -14
-10 -11 -3 3 -2 9 2 15 9 16 15 13 8 -4z m-1743 -35 c6 -11 8 -20 6 -20 -3 0
-10 9 -16 20 -6 11 -8 20 -6 20 3 0 10 -9 16 -20z m95 -36 c9 -15 12 -23 6
-20 -11 7 -35 46 -28 46 3 0 12 -12 22 -26z m1640 -23 c3 -5 2 -12 -3 -15 -5
-3 -9 1 -9 9 0 17 3 19 12 6z m59 -22 c-3 -5 -10 -7 -15 -3 -5 3 -7 10 -3 15
3 5 10 7 15 3 5 -3 7 -10 3 -15z m121 12 c3 -5 2 -12 -3 -15 -5 -3 -9 1 -9 9
0 17 3 19 12 6z m-1784 -18 c13 -16 12 -17 -3 -4 -17 13 -22 21 -14 21 2 0 10
-8 17 -17z m1666 -28 c0 -8 -4 -12 -9 -9 -5 3 -6 10 -3 15 9 13 12 11 12 -6z
m-1933 -3 c3 -5 -1 -9 -9 -9 -8 0 -12 4 -9 9 3 4 7 8 9 8 2 0 6 -4 9 -8z
m2301 -14 c4 -3 2 -9 -3 -12 -5 -3 -15 1 -21 8 -10 11 -9 14 3 12 9 -1 18 -5
21 -8z m-2246 -12 c11 -14 6 -15 -27 -7 -4 1 8 21 12 21 2 0 9 -6 15 -14z
m307 -68 c69 -86 213 -229 304 -303 72 -57 227 -163 278 -189 17 -9 32 -19 32
-22 0 -14 -170 90 -275 169 -92 70 -288 263 -358 355 -66 86 -52 78 19 -10z
m1738 60 c-3 -4 -12 -8 -20 -8 -8 0 -13 4 -10 8 3 5 12 9 20 9 8 0 13 -4 10
-9z m-2044 -22 c0 -2 -8 -10 -17 -17 -16 -13 -17 -12 -4 4 13 16 21 21 21 13z
m40 -11 c0 -2 -10 -9 -22 -15 -22 -11 -22 -10 -4 4 21 17 26 19 26 11z m181
-22 c13 -16 12 -17 -3 -4 -17 13 -22 21 -14 21 2 0 10 -8 17 -17z m-195 -18
c-1 -8 -8 -21 -16 -28 -10 -10 -11 -9 -4 3 5 8 9 18 10 23 3 14 4 17 8 17 2 0
3 -7 2 -15z m225 -22 c13 -16 12 -17 -3 -4 -17 13 -22 21 -14 21 2 0 10 -8 17
-17z m-157 -47 c-2 -6 -14 -18 -27 -25 -20 -13 -21 -13 -8 2 14 17 3 23 -15
10 -5 -5 -2 -1 7 8 19 18 49 21 43 5z m48 -11 c3 0 10 -4 15 -8 4 -5 1 -7 -7
-5 -8 2 -14 -2 -15 -9 0 -6 -3 -15 -7 -19 -14 -13 -8 -23 10 -18 14 5 15 4 2
-5 -21 -14 -37 4 -20 24 12 14 7 20 -14 16 -5 -1 -4 4 2 12 7 8 8 18 4 22 -4
5 0 4 8 -1 8 -5 18 -9 22 -9z m62 -13 c2 -4 0 -14 -6 -22 -8 -12 -9 -12 -5 2
3 9 1 19 -6 22 -9 3 -9 5 0 5 6 1 14 -3 17 -7z m-27 -42 c-1 -10 -5 -17 -9
-14 -4 3 -4 12 -1 21 5 12 3 14 -7 8 -9 -5 -11 -4 -6 4 10 16 25 4 23 -19z m3
-30 c8 6 20 10 25 10 14 -1 -22 -21 -45 -25 -13 -3 -17 1 -13 12 4 9 8 11 12
4 4 -6 12 -7 21 -1z m53 -35 c4 3 5 2 2 -2 -10 -13 -52 -10 -52 3 0 7 4 11 9
8 4 -3 8 1 8 8 1 9 5 7 14 -4 7 -10 16 -16 19 -13z m-77 -30 c-1 -8 -5 -17 -8
-21 -5 -4 -4 16 1 34 3 9 9 -1 7 -13z m444 -127 c229 -172 468 -290 760 -373
205 -59 323 -74 640 -86 157 -6 287 -13 289 -15 3 -2 -1 -10 -9 -17 -10 -9
-11 -9 -6 1 6 9 -18 12 -106 12 -188 1 -473 18 -576 36 -197 33 -471 123 -653
214 -160 81 -400 248 -470 327 -21 24 -19 24 11 -3 19 -17 73 -60 120 -96z
m-320 88 c0 -2 -8 -10 -17 -17 -16 -13 -17 -12 -4 4 13 16 21 21 21 13z m29
-19 c8 -10 7 -14 -2 -14 -8 0 -14 6 -14 14 0 7 1 13 2 13 2 0 8 -6 14 -13z
m767 -295 c-5 -4 -146 66 -146 73 0 3 34 -12 75 -32 41 -20 73 -39 71 -41z
m344 -112 c20 -6 21 -8 5 -8 -11 0 -29 3 -40 8 -25 11 1 11 35 0z m90 -20 c20
-6 21 -8 5 -8 -11 0 -31 4 -45 8 -20 6 -21 8 -5 8 11 0 31 -4 45 -8z m1574
-216 c-177 -389 -342 -714 -351 -689 -2 6 27 67 63 135 65 123 236 471 316
643 23 48 43 85 45 83 2 -2 -30 -80 -73 -172z m-733 143 c-10 -9 -11 -8 -5 6
3 10 9 15 12 12 3 -3 0 -11 -7 -18z m-57 -104 c-26 -49 -63 -117 -84 -153
-191 -333 -240 -436 -247 -520 -8 -81 10 -132 59 -175 51 -43 83 -53 218 -65
l105 -9 -116 4 c-140 5 -184 20 -239 82 -52 59 -63 98 -58 197 5 102 21 137
188 422 137 233 155 260 111 162 -34 -75 -35 -78 -21 -78 6 0 10 5 10 12 0 13
108 208 116 208 2 0 -17 -39 -42 -87z m-209 -837 c6 -4 1 -4 -10 2 -11 6 -31
23 -45 39 l-25 28 35 -30 c19 -16 40 -34 45 -39z"/>
<path d="M6368 8793 c17 -2 47 -2 65 0 17 2 3 4 -33 4 -36 0 -50 -2 -32 -4z"/>
<path d="M6511 7224 c-12 -20 -20 -38 -18 -40 2 -2 14 14 26 36 28 50 21 53
-8 4z"/>
<path d="M3576 7692 c-3 -5 1 -9 9 -9 8 0 12 4 9 9 -3 4 -7 8 -9 8 -2 0 -6 -4
-9 -8z"/>
<path d="M3461 7586 c-10 -11 -9 -14 1 -12 14 2 23 15 15 22 -2 2 -10 -2 -16
-10z"/>
<path d="M3375 7453 c3 -3 0 -12 -6 -20 -6 -7 -10 -13 -8 -14 39 -8 40 -7 27
8 -7 9 -11 18 -10 20 2 3 1 7 -2 9 -3 2 -4 1 -1 -3z"/>
<path d="M3346 7392 c-3 -6 -1 -14 5 -17 14 -9 20 -2 10 14 -6 8 -11 9 -15 3z"/>
<path d="M3326 7271 c-4 -5 -2 -13 4 -16 8 -5 8 -11 1 -19 -8 -9 -7 -13 4 -13
8 0 13 3 10 5 -3 3 0 11 5 17 7 9 6 16 -4 24 -9 8 -16 8 -20 2z"/>
<path d="M4359 6843 c-13 -16 -12 -17 4 -4 9 7 17 15 17 17 0 8 -8 3 -21 -13z"/>
<path d="M4289 6783 l-34 -38 38 34 c20 19 37 36 37 38 0 8 -8 0 -41 -34z"/>
<path d="M6956 5918 c3 -4 23 -8 45 -8 21 0 39 4 39 8 0 5 -20 9 -45 9 -24 0
-42 -4 -39 -9z"/>
<path d="M5160 5350 c-8 -5 -36 -10 -62 -10 -26 0 -58 -4 -73 -10 -14 -5 -46
-11 -70 -12 -25 -2 -45 -7 -45 -13 0 -5 -5 -3 -10 5 -16 25 -12 -57 4 -88 18
-34 51 -65 93 -86 28 -14 79 -16 390 -15 197 0 352 3 346 6 -7 2 -13 11 -13
19 0 8 -8 14 -18 14 -10 0 -29 11 -42 25 -13 14 -29 25 -37 25 -7 0 -12 5 -10
12 3 16 -111 79 -155 85 -21 3 -38 11 -38 18 0 8 -31 16 -88 24 -107 13 -152
14 -172 1z"/>
<path d="M4725 5069 c-3 -4 2 -6 10 -5 21 3 28 13 10 13 -9 0 -18 -4 -20 -8z"/>
<path d="M4740 4985 c5 -7 6 -16 2 -21 -4 -5 -3 -5 2 -1 15 12 15 34 0 34 -9
0 -11 -4 -4 -12z"/>
<path d="M5821 4924 c0 -11 3 -14 6 -6 3 7 2 16 -1 19 -3 4 -6 -2 -5 -13z"/>
<path d="M4753 4895 c0 -8 4 -12 9 -9 5 3 6 10 3 15 -9 13 -12 11 -12 -6z"/>
<path d="M5812 4880 c0 -14 2 -19 5 -12 2 6 2 18 0 25 -3 6 -5 1 -5 -13z"/>
<path d="M5796 4804 c-4 -20 -5 -38 -3 -40 3 -3 8 11 11 32 4 20 5 38 3 40 -3
3 -8 -11 -11 -32z"/>
<path d="M4616 4622 c-7 -12 22 -52 37 -52 8 0 7 4 -2 9 -8 5 -16 17 -17 25
-1 9 2 14 7 10 5 -3 7 -10 4 -15 -7 -10 8 -12 18 -2 4 3 -1 12 -11 19 -20 16
-29 17 -36 6z"/>
<path d="M4673 4583 c4 -3 1 -13 -6 -22 -11 -14 -10 -14 5 -2 16 12 16 31 1
31 -4 0 -3 -3 0 -7z"/>
<path d="M4719 4578 c-5 -18 -6 -38 -1 -34 7 8 12 36 6 36 -2 0 -4 -1 -5 -2z"/>
<path d="M4628 4509 c-14 -15 -14 -18 -2 -23 9 -3 13 -10 9 -15 -3 -6 3 -8 15
-6 11 2 22 0 24 -4 3 -4 -5 -8 -16 -8 -27 -2 -44 -18 -29 -27 6 -4 11 -2 11 3
0 6 5 11 11 11 5 0 7 -4 4 -10 -3 -5 -2 -10 2 -10 15 0 37 44 24 48 -6 2 -9 7
-6 12 3 4 -5 6 -17 3 -22 -4 -22 -4 -5 11 11 8 28 13 38 11 11 -2 17 0 14 5
-3 5 -15 7 -27 5 -12 -3 -25 -1 -28 3 -3 5 -13 0 -22 -9z"/>
<path d="M4685 4431 c-3 -5 -2 -12 3 -15 5 -3 9 1 9 9 0 17 -3 19 -12 6z"/>
<path d="M4789 4248 c-4 -12 -5 -57 0 -53 6 6 10 55 4 55 -1 0 -3 -1 -4 -2z"/>
<path d="M4640 4185 c5 -7 6 -16 2 -21 -4 -5 -3 -5 2 -1 15 12 15 34 0 34 -9
0 -11 -4 -4 -12z"/>
<path d="M4788 4103 c6 -2 9 -10 6 -15 -4 -7 -2 -8 5 -4 13 9 5 26 -12 25 -9
0 -8 -2 1 -6z"/>
<path d="M4844 4072 c3 -5 0 -13 -6 -15 -9 -4 -10 -6 -1 -6 17 -1 25 16 12 25
-7 4 -9 3 -5 -4z"/>
<path d="M4875 4071 c-3 -5 -2 -12 3 -15 5 -3 9 1 9 9 0 17 -3 19 -12 6z"/>
<path d="M4796 4062 c-3 -5 1 -15 8 -21 11 -10 14 -9 12 3 -3 21 -13 29 -20
18z"/>
<path d="M5485 4061 c-3 -5 -1 -12 5 -16 5 -3 10 -3 10 1 0 3 8 0 18 -7 14
-11 13 -10 -2 9 -22 25 -23 25 -31 13z"/>
<path d="M4865 4020 c-4 -6 -10 -8 -15 -5 -4 3 -14 -2 -21 -11 -15 -18 -22
-47 -9 -39 13 8 19 -22 7 -34 -6 -6 -7 -11 -3 -11 5 0 2 -8 -5 -17 -13 -16
-12 -17 3 -5 17 14 43 8 33 -8 -3 -5 -1 -11 5 -15 5 -3 10 -1 10 6 0 7 10 3
24 -10 l23 -22 -1 28 c-1 18 4 28 14 28 8 0 16 10 16 23 1 12 2 23 4 25 7 9 7
38 -1 43 -5 3 -6 11 -3 17 4 7 3 8 -2 4 -5 -5 -9 -14 -9 -20 0 -7 -5 -12 -12
-12 -19 0 -64 -45 -57 -57 4 -7 3 -8 -5 -4 -6 4 -9 12 -6 17 4 5 1 9 -6 9 -8
0 -8 4 1 15 11 13 10 14 -3 9 -11 -4 -15 0 -13 13 2 10 8 18 14 18 6 0 17 6
24 13 6 6 9 12 6 12 -4 0 -10 -5 -13 -10z m81 -44 c-1 -8 -8 -22 -16 -32 -8
-10 -10 -15 -4 -11 6 3 11 0 11 -8 0 -8 -3 -14 -6 -13 -3 0 -8 0 -11 -2 -20
-7 -61 -7 -66 1 -3 5 -2 8 3 7 4 -2 8 0 8 4 0 3 11 18 24 32 19 20 27 23 38
14 8 -6 13 -7 12 -2 -2 13 0 24 5 24 2 0 3 -6 2 -14z"/>
<path d="M4891 3946 c-8 -10 -8 -16 2 -24 10 -9 13 -6 13 13 0 29 0 29 -15 11z"/>
<path d="M4896 4021 c-4 -5 -2 -12 3 -15 5 -4 12 -2 15 3 4 5 2 12 -3 15 -5 4
-12 2 -15 -3z"/>
<path d="M4756 4012 c-3 -5 1 -9 9 -9 8 0 12 4 9 9 -3 4 -7 8 -9 8 -2 0 -6 -4
-9 -8z"/>
<path d="M4873 3985 c0 -8 4 -12 9 -9 5 3 6 10 3 15 -9 13 -12 11 -12 -6z"/>
<path d="M5463 3985 c0 -8 4 -12 9 -9 5 3 6 10 3 15 -9 13 -12 11 -12 -6z"/>
<path d="M5490 3966 c0 -2 8 -10 18 -17 15 -13 16 -12 3 4 -13 16 -21 21 -21
13z"/>
<path d="M5083 3913 c0 -9 4 -10 14 -2 7 6 13 12 13 14 0 1 -6 2 -13 2 -8 0
-14 -6 -14 -14z"/>
<path d="M5475 3890 c-3 -6 1 -7 9 -4 18 7 21 14 7 14 -6 0 -13 -4 -16 -10z"/>
<path d="M4995 3879 c-4 -6 -5 -12 -2 -15 2 -3 7 2 10 11 7 17 1 20 -8 4z"/>
<path d="M5013 3845 c0 -8 4 -12 9 -9 5 3 6 10 3 15 -9 13 -12 11 -12 -6z"/>
<path d="M5077 3849 c7 -7 15 -10 18 -7 3 3 -2 9 -12 12 -14 6 -15 5 -6 -5z"/>
<path d="M5266 3852 c-2 -4 -1 -14 3 -21 6 -10 10 -9 14 3 6 16 -8 32 -17 18z"/>
<path d="M5433 3835 c0 -8 4 -12 9 -9 5 3 6 10 3 15 -9 13 -12 11 -12 -6z"/>
<path d="M5350 3836 c0 -3 9 -10 20 -16 11 -6 20 -8 20 -6 0 3 -9 10 -20 16
-11 6 -20 8 -20 6z"/>
<path d="M5030 3820 c-12 -7 -10 -9 7 -7 12 0 19 5 17 9 -6 10 -6 10 -24 -2z"/>
<path d="M5089 3827 c-1 -4 -2 -13 -3 -19 -1 -8 -12 -12 -26 -10 -24 3 -24 3
4 -12 39 -22 47 -20 43 9 -3 23 -16 45 -18 32z m11 -37 c0 -5 -5 -10 -11 -10
-5 0 -7 5 -4 10 3 6 8 10 11 10 2 0 4 -4 4 -10z"/>
<path d="M5295 3800 c3 -5 8 -10 11 -10 2 0 4 5 4 10 0 6 -5 10 -11 10 -5 0
-7 -4 -4 -10z"/>
<path d="M5393 3783 c9 -2 23 -2 30 0 6 3 -1 5 -18 5 -16 0 -22 -2 -12 -5z"/>
<path d="M5270 3770 c-50 -11 1 -11 60 -1 41 8 42 8 10 8 -19 0 -51 -3 -70 -7z"/>
<path d="M4773 5125 c0 -8 4 -12 9 -9 5 3 6 10 3 15 -9 13 -12 11 -12 -6z"/>
<path d="M2539 4673 c-13 -16 -12 -17 4 -4 16 13 21 21 13 21 -2 0 -10 -8 -17
-17z"/>
<path d="M2741 4497 c-6 -8 -8 -17 -4 -20 12 -13 -13 -7 -27 6 -8 6 -3 -2 13
-19 22 -24 25 -33 14 -44 -6 -8 -3 -7 9 3 11 9 24 14 29 10 4 -5 5 -2 1 5 -4
7 -11 10 -16 7 -10 -6 -21 20 -12 29 6 7 12 36 7 36 -1 0 -8 -6 -14 -13z"/>
<path d="M2763 4383 c0 -9 4 -10 14 -2 7 6 13 12 13 14 0 1 -6 2 -13 2 -8 0
-14 -6 -14 -14z"/>
<path d="M2755 4311 c-3 -5 -2 -12 3 -15 5 -3 9 1 9 9 0 17 -3 19 -12 6z"/>
<path d="M2900 3938 c27 -23 13 -59 -20 -53 -11 2 -22 0 -24 -4 -6 -10 35 -8
50 2 13 8 37 -16 27 -27 -4 -3 -8 -14 -9 -22 -2 -14 -1 -14 15 0 10 9 20 15
22 14 2 -2 3 -1 2 1 -2 2 2 10 9 18 6 8 7 13 2 11 -5 -2 -9 0 -9 3 0 12 -39
50 -60 60 -17 9 -18 8 -5 -3z m45 -46 c-3 -3 0 -11 5 -17 7 -9 5 -17 -7 -26
-16 -12 -17 -12 -6 2 10 12 10 18 1 27 -7 7 -13 19 -14 27 -2 13 0 14 12 4 8
-6 12 -14 9 -17z"/>
</g>
</svg>
